<svg width="80" height="198" viewBox="0 0 80 198" fill="none" xmlns="http://www.w3.org/2000/svg">
<rect y="59" width="80" height="80" rx="11.9826" fill="#FF5900"/>
<g clip-path="url(#clip0_5086_167)">
<path d="M60.8123 80.2077C61.2441 81.1206 61.5032 82.1517 61.5032 83.2794V114.597C61.5032 115.714 61.2441 116.745 60.8123 117.658C64.1483 118.217 67.3332 115.575 67.3332 111.934V85.9321C67.3332 82.2698 64.1375 79.6493 60.8123 80.2077Z" fill="white"/>
<path opacity="0.8" d="M60.8131 80.2077C59.388 77.222 55.9764 75.5358 52.6511 76.6098C53.8063 77.9416 54.5297 79.703 54.5297 81.7006V116.165C54.5297 118.152 53.8063 119.924 52.6619 121.256C55.998 122.33 59.3988 120.633 60.8239 117.658C61.2557 116.745 61.5148 115.703 61.5148 114.597V83.2794C61.5148 82.1624 61.2557 81.1314 60.8239 80.2077H60.8131Z" fill="white"/>
<path opacity="0.4" d="M29.2443 112.879C26.5128 111.901 24.6775 109.249 24.6775 106.274V92.4297C24.6775 89.5299 26.4157 86.9416 29.0499 85.8998L52.2402 76.7493C52.3806 76.6956 52.5101 76.6634 52.6505 76.6204C50.6748 74.3328 47.4359 73.3018 44.3374 74.5261L18.8043 84.6002C15.9109 85.7387 14 88.5955 14 91.7853V107.015C14 110.29 16.0189 113.201 19.0202 114.286L44.5425 123.447C47.587 124.542 50.7179 123.5 52.6397 121.277C52.5641 121.256 52.4993 121.245 52.4238 121.213L29.2227 112.889L29.2443 112.879Z" fill="white"/>
<path opacity="0.6" d="M54.5288 115.499L40.6665 110.516C38.4101 109.7 36.8878 107.498 36.8878 105.039V93.5468C36.8878 91.141 38.3237 88.993 40.5046 88.1231L54.5288 82.5598V81.7113C54.5288 79.7137 53.8055 77.963 52.6503 76.6205C52.51 76.6635 52.3804 76.6957 52.24 76.7494L29.039 85.9106C26.4047 86.9524 24.6665 89.5408 24.6665 92.4405V106.284C24.6665 109.259 26.5019 111.901 29.2333 112.889L52.4344 121.213C52.51 121.234 52.5747 121.256 52.6503 121.277C53.8055 119.935 54.518 118.174 54.518 116.187L54.5288 115.54V115.499Z" fill="white"/>
<path d="M36.8872 93.536V105.028C36.8872 107.498 38.3987 109.7 40.6659 110.505L54.5282 115.499V82.5598L40.5039 88.1231C38.3231 88.9823 36.8872 91.141 36.8872 93.5468V93.536Z" fill="white"/>
</g>
<path d="M40 0.666667C37.0545 0.666667 34.6667 3.05448 34.6667 6C34.6667 8.94552 37.0545 11.3333 40 11.3333C42.9455 11.3333 45.3333 8.94552 45.3333 6C45.3333 3.05448 42.9455 0.666666 40 0.666667ZM39 6L39 59L41 59L41 6L39 6Z" fill="#FF5900"/>
<path d="M40 186.667C37.0545 186.667 34.6667 189.054 34.6667 192C34.6667 194.946 37.0545 197.333 40 197.333C42.9455 197.333 45.3333 194.946 45.3333 192C45.3333 189.054 42.9455 186.667 40 186.667ZM39 139L39 192L41 192L41 139L39 139Z" fill="#FF5900"/>
<defs>
<clipPath id="clip0_5086_167">
<rect width="53.3333" height="49.8765" fill="white" transform="translate(14 74)"/>
</clipPath>
</defs>
</svg>
