<svg width="573" height="120" viewBox="0 0 573 120" fill="none" xmlns="http://www.w3.org/2000/svg">
<rect x="227" width="120" height="120" rx="17.9739" fill="#FF5900"/>
<g clip-path="url(#clip0_5006_163)">
<path d="M317.219 32.4042C317.866 33.7735 318.255 35.3201 318.255 37.0116V83.9883C318.255 85.6638 317.866 87.2103 317.219 88.5797C322.223 89.4174 327 85.4543 327 79.993V40.9908C327 35.4973 322.206 31.5664 317.219 32.4042Z" fill="white"/>
<path opacity="0.8" d="M317.219 32.4042C315.082 27.9256 309.964 25.3963 304.977 27.0073C306.709 29.005 307.794 31.647 307.794 34.6434V86.3404C307.794 89.3207 306.709 91.9789 304.993 93.9765C309.997 95.5875 315.098 93.0421 317.236 88.5797C317.883 87.2103 318.272 85.6477 318.272 83.9883V37.0116C318.272 35.3362 317.883 33.7896 317.236 32.4042H317.219Z" fill="white"/>
<path opacity="0.4" d="M269.866 81.4106C265.769 79.9446 263.016 75.9654 263.016 71.503V50.7372C263.016 46.3875 265.623 42.505 269.575 40.9423L304.36 27.2166C304.571 27.1361 304.765 27.0877 304.976 27.0233C302.012 23.5919 297.154 22.0453 292.506 23.8818L254.206 38.993C249.866 40.7007 247 44.9859 247 49.7706V72.6146C247 77.5281 250.028 81.8939 254.53 83.521L292.814 97.2628C297.381 98.9061 302.077 97.3434 304.96 94.0086C304.846 93.9764 304.749 93.9603 304.636 93.9119L269.834 81.4267L269.866 81.4106Z" fill="white"/>
<path opacity="0.6" d="M307.793 85.3406L287 77.8665C283.615 76.6421 281.332 73.3396 281.332 69.6504V52.4127C281.332 48.8041 283.486 45.5821 286.757 44.2772L307.793 35.9322V34.6595C307.793 31.6631 306.708 29.0371 304.975 27.0234C304.765 27.0878 304.571 27.1361 304.36 27.2167L269.558 40.9585C265.607 42.5212 263 46.4037 263 50.7534V71.5192C263 75.9816 265.753 79.9447 269.85 81.4268L304.652 93.912C304.765 93.9443 304.862 93.9765 304.975 94.0087C306.708 91.9949 307.777 89.3529 307.777 86.3726L307.793 85.4019V85.3406Z" fill="white"/>
<path d="M281.331 52.3967V69.6343C281.331 73.3396 283.598 76.6422 286.999 77.8504L307.792 85.3416V35.9323L286.756 44.2772C283.485 45.566 281.331 48.8041 281.331 52.4128V52.3967Z" fill="white"/>
</g>
<path d="M0.218805 60C0.218805 63.1929 2.80713 65.7812 6 65.7812C9.19287 65.7812 11.7812 63.1929 11.7812 60C11.7812 56.8071 9.19287 54.2188 6 54.2188C2.80713 54.2188 0.218805 56.8071 0.218805 60ZM6 61.084H227V58.916H6V61.084Z" fill="#FF5900"/>
<path d="M561.219 60C561.219 63.1929 563.807 65.7812 567 65.7812C570.193 65.7812 572.781 63.1929 572.781 60C572.781 56.8072 570.193 54.2188 567 54.2188C563.807 54.2188 561.219 56.8072 561.219 60ZM343 61.084L567 61.084L567 58.916L343 58.916L343 61.084Z" fill="#FF5900"/>
<defs>
<clipPath id="clip0_5006_163">
<rect width="80" height="74.8148" fill="white" transform="translate(247 23.0926)"/>
</clipPath>
</defs>
</svg>
