<svg width="18" height="18" viewBox="0 0 18 18" fill="none" xmlns="http://www.w3.org/2000/svg">
<path fill-rule="evenodd" clip-rule="evenodd" d="M2.00716 0.592606C1.61663 0.202082 0.983466 0.202082 0.592942 0.592606C0.202418 0.983131 0.202418 1.6163 0.592942 2.00682L7.49504 8.90892L0.593186 15.8108C0.202662 16.2013 0.202662 16.8345 0.593186 17.225C0.983711 17.6155 1.61688 17.6155 2.0074 17.225L8.90926 10.3231L15.8111 17.225C16.2016 17.6155 16.8348 17.6155 17.2253 17.225C17.6158 16.8345 17.6158 16.2013 17.2253 15.8108L10.3235 8.90892L17.2256 2.00682C17.6161 1.6163 17.6161 0.983133 17.2256 0.592608C16.835 0.202084 16.2019 0.202084 15.8114 0.592608L8.90926 7.49471L2.00716 0.592606Z" fill="#FF5900"/>
</svg>
